<svg xmlns="http://www.w3.org/2000/svg" width="88.653" height="88.858" viewBox="0 0 88.653 88.858">
  <g id="ic_customer" transform="translate(-154.789 -118.127)">
    <path id="Path_29" data-name="Path 29" d="M274.332,167.486c0,8.819-6.465,15.969-14.44,15.969H230.94c-7.975,0-14.44-7.149-14.44-15.969V135.469c0-8.819,6.465-15.969,14.44-15.969h28.952c7.975,0,14.44,7.149,14.44,15.969Z" transform="translate(-54.003 -1.201)" fill="#4dd4e2"/>
    <g id="Group_39" data-name="Group 39" transform="translate(154.789 118.127)">
      <g id="Group_28" data-name="Group 28" transform="translate(0.001 14.332)">
        <g id="Group_27" data-name="Group 27">
          <path id="Path_30" data-name="Path 30" d="M226.807,295.926l-3.318-9.955a10.032,10.032,0,0,0-7.723-6.7l-9.578-1.743v-.742a14.421,14.421,0,0,0,4.272-3.794h2.894a4.3,4.3,0,0,0,4.3-4.3V251.5a18.632,18.632,0,0,0-37.263,0v10.032a5.742,5.742,0,0,0,4.571,5.614,14.359,14.359,0,0,0,6.9,9.645v.742l-9.579,1.743a10.03,10.03,0,0,0-7.722,6.7l-.573,1.721L169.1,282.81a1.436,1.436,0,0,1,0-2.028l5.661-5.66L164.135,264.5l-6.4,6.4a10.032,10.032,0,0,0,0,14.187l19.37,19.37a10.027,10.027,0,0,0,14.143.043l6.981-6.4-2.177-2.173Zm-12.02-27.231a1.435,1.435,0,0,1-1.433,1.433h-1.205a14.229,14.229,0,0,0,.934-2.985,5.68,5.68,0,0,0,1.7-.678Zm-1.433-4.7v-4.936a2.841,2.841,0,0,1,0,4.936Zm-28.664,0a2.841,2.841,0,0,1,0-4.936Zm0-9.634V256a5.682,5.682,0,0,0-1.433.593v-5.1a15.765,15.765,0,0,1,31.53,0v5.1a5.629,5.629,0,0,0-1.433-.593v-1.637h-1.433a15.769,15.769,0,0,1-11.221-4.648l-1.678-1.678-1.678,1.678a15.769,15.769,0,0,1-11.22,4.648Zm2.866,10.032v-7.22a18.58,18.58,0,0,0,11.466-5.093,18.574,18.574,0,0,0,11.466,5.093v7.22a11.378,11.378,0,0,1-1.551,5.733h-9.915v2.866h7.559a11.447,11.447,0,0,1-19.024-8.6Zm15.765,13.671v.067l-4.3,4.3-4.3-4.3v-.067a14.321,14.321,0,0,0,8.6,0Zm-26.05,8.81a7.168,7.168,0,0,1,5.516-4.785l10.018-1.82,6.216,6.216,6.214-6.214,10.016,1.82a7.166,7.166,0,0,1,5.516,4.785l2.062,6.181H193.187l-5.582-5.582-6.2,5.611a1.464,1.464,0,0,1-2.027,0l-3.13-3.13ZM164.133,268.55l6.573,6.573-1.557,1.557-6.573-6.573Zm25.131,33.878a7.168,7.168,0,0,1-10.134,0l-19.37-19.368a7.168,7.168,0,0,1,0-10.134l.788-.788,6.573,6.573-.051.052a4.307,4.307,0,0,0,0,6.081l10.277,10.277a4.278,4.278,0,0,0,3.041,1.26,4.22,4.22,0,0,0,2.988-1.21l.108-.1,6.6,6.6Zm2.938-2.695-6.588-6.588,1.893-1.711,6.577,6.577Z" transform="translate(-154.799 -232.865)"/>
        </g>
      </g>
      <g id="Group_30" data-name="Group 30" transform="translate(59.989)">
        <g id="Group_29" data-name="Group 29">
          <path id="Path_31" data-name="Path 31" d="M659.409,118.127H639.345a4.3,4.3,0,0,0-4.3,4.3v11.466a4.3,4.3,0,0,0,4.3,4.3h3.828l-1.482,8.644,13.83-8.644h3.888a4.3,4.3,0,0,0,4.3-4.3V122.427A4.3,4.3,0,0,0,659.409,118.127Zm1.433,15.765a1.435,1.435,0,0,1-1.433,1.433H654.7l-9.1,5.688.976-5.688h-7.228a1.436,1.436,0,0,1-1.433-1.433V122.427a1.436,1.436,0,0,1,1.433-1.433h20.065a1.436,1.436,0,0,1,1.433,1.433Z" transform="translate(-635.045 -118.127)"/>
        </g>
      </g>
      <g id="Group_32" data-name="Group 32" transform="translate(65.722 5.733)">
        <g id="Group_31" data-name="Group 31">
          <rect id="Rectangle_7" data-name="Rectangle 7" width="17.198" height="2.866"/>
        </g>
      </g>
      <g id="Group_34" data-name="Group 34" transform="translate(65.722 11.466)">
        <g id="Group_33" data-name="Group 33">
          <rect id="Rectangle_8" data-name="Rectangle 8" width="11.466" height="2.866"/>
        </g>
      </g>
      <g id="Group_36" data-name="Group 36" transform="translate(0 4.3)">
        <g id="Group_35" data-name="Group 35">
          <path id="Path_32" data-name="Path 32" d="M199.013,152.548a40.1,40.1,0,0,0-39.05,31.022l-2.716-4.528-2.458,1.475,5.038,8.394,8.394-5.038-1.475-2.458-3.884,2.33a37.273,37.273,0,0,1,47.192-26.669l.849-2.737A40.1,40.1,0,0,0,199.013,152.548Z" transform="translate(-154.789 -152.548)"/>
        </g>
      </g>
      <g id="Group_38" data-name="Group 38" transform="translate(73.176 26.696)">
        <g id="Group_37" data-name="Group 37">
          <path id="Path_33" data-name="Path 33" d="M755.395,336.887,747,331.849l-5.036,8.4,2.458,1.475,2.508-4.181a37.3,37.3,0,0,1-6.316,35.5l2.226,1.806a40.134,40.134,0,0,0,6.868-38.031l4.212,2.527Z" transform="translate(-740.614 -331.849)"/>
        </g>
      </g>
    </g>
  </g>
</svg>
