<svg xmlns="http://www.w3.org/2000/svg" width="90" height="80.568" viewBox="0 0 90 80.568">
  <g id="ic_ontime" transform="translate(-72.637 -121.572)">
    <path id="Path_14" data-name="Path 14" d="M355.128,460.324c0,6.4-7.337,11.589-16.387,11.589H305.886c-9.05,0-16.387-5.188-16.387-11.589V437.088c0-6.4,7.337-11.589,16.387-11.589h32.856c9.05,0,16.387,5.188,16.387,11.589Z" transform="translate(-192.491 -269.773)" fill="#4dd4e2"/>
    <g id="Group_14" data-name="Group 14" transform="translate(72.637 121.572)">
      <g id="Group_13" data-name="Group 13">
        <path id="Path_15" data-name="Path 15" d="M156.407,165.732a33.087,33.087,0,0,0-25.729-29.013v-4.165a5.574,5.574,0,0,0-1.345-10.982h-11.8a5.574,5.574,0,0,0-1.345,10.982v4.177a32.917,32.917,0,0,0-16.144,8.88,33.255,33.255,0,0,0-2.783,3.159c-.041,0-.082-.006-.124-.006H85.451a1.639,1.639,0,1,0,0,3.279h9.576a32.859,32.859,0,0,0-2.909,6.3H74.276a1.639,1.639,0,0,0,0,3.279H91.191a33.349,33.349,0,0,0-.813,6.3H83.129a1.639,1.639,0,1,0,0,3.279h7.3a33.3,33.3,0,0,0,1.024,6.3H80.834a1.639,1.639,0,1,0,0,3.278H92.5a33.109,33.109,0,0,0,27.683,21.2q1.624.16,3.249.16A33.2,33.2,0,0,0,141.5,196.8a1.639,1.639,0,0,0-1.789-2.748,29.835,29.835,0,1,1,8.787-8.8,1.639,1.639,0,0,0,2.75,1.785A33.22,33.22,0,0,0,156.407,165.732Zm-41.172-38.587a2.3,2.3,0,0,1,2.295-2.295h11.8a2.3,2.3,0,0,1,0,4.59h-11.8A2.3,2.3,0,0,1,115.234,127.146Zm4.228,9.022V132.72H127.4v3.442A33.4,33.4,0,0,0,119.463,136.167Z" transform="translate(-72.637 -121.572)"/>
        <path id="Path_16" data-name="Path 16" d="M709.95,727.3a1.64,1.64,0,1,0,1.159.48A1.648,1.648,0,0,0,709.95,727.3Z" transform="translate(-636.874 -659.226)"/>
        <path id="Path_17" data-name="Path 17" d="M323.986,317.55a25.43,25.43,0,1,0,25.431,25.43A25.459,25.459,0,0,0,323.986,317.55Zm0,47.582a22.152,22.152,0,1,1,22.152-22.152A22.177,22.177,0,0,1,323.986,365.132Z" transform="translate(-273.168 -295.526)"/>
        <path id="Path_18" data-name="Path 18" d="M466.638,427.147l-8.119,8.119a5.08,5.08,0,0,0-4.5,0l-3.634-3.634a1.639,1.639,0,0,0-2.319,2.318l3.634,3.634a5.094,5.094,0,1,0,9.137,0l7.881-7.881h0l.238-.238a1.639,1.639,0,1,0-2.319-2.318Zm-10.369,14.5a1.815,1.815,0,1,1,1.815-1.815A1.817,1.817,0,0,1,456.268,441.65Z" transform="translate(-405.449 -392.381)"/>
        <path id="Path_19" data-name="Path 19" d="M655.87,529.434h-1.519a1.639,1.639,0,0,0,0,3.279h1.519a1.639,1.639,0,1,0,0-3.279Z" transform="translate(-587.523 -483.599)"/>
        <path id="Path_20" data-name="Path 20" d="M357.451,529.078h-1.519a1.639,1.639,0,1,0,0,3.279h1.519a1.639,1.639,0,1,0,0-3.279Z" transform="translate(-322.641 -483.283)"/>
        <path id="Path_21" data-name="Path 21" d="M512.077,378.086a1.639,1.639,0,0,0,1.639-1.639v-1.519a1.639,1.639,0,0,0-3.279,0v1.519A1.639,1.639,0,0,0,512.077,378.086Z" transform="translate(-461.238 -345.001)"/>
        <path id="Path_22" data-name="Path 22" d="M511.721,671.707a1.639,1.639,0,0,0-1.639,1.64v1.518a1.639,1.639,0,1,0,3.279,0v-1.518A1.639,1.639,0,0,0,511.721,671.707Z" transform="translate(-460.922 -609.883)"/>
        <path id="Path_23" data-name="Path 23" d="M74.276,619.261a1.64,1.64,0,1,0,1.159.48A1.653,1.653,0,0,0,74.276,619.261Z" transform="translate(-72.637 -563.332)"/>
      </g>
    </g>
  </g>
</svg>
