<svg xmlns="http://www.w3.org/2000/svg" width="69.717" height="88.823" viewBox="0 0 69.717 88.823">
  <g id="ic_quality" transform="translate(0)">
    <path id="Path_8" data-name="Path 8" d="M224.506,119.523c0,8.459-5.925,15.315-13.235,15.315H184.735c-7.309,0-13.235-6.857-13.235-15.315V88.815c0-8.459,5.925-15.315,13.235-15.315h26.536c7.309,0,13.235,6.857,13.235,15.315Z" transform="translate(-171.5 -73.5)" fill="#4dd4e2"/>
    <g id="Group_3" data-name="Group 3" transform="translate(14.155 15.405)">
      <g id="Group_2" data-name="Group 2" transform="translate(0 0)">
        <path id="Path_9" data-name="Path 9" d="M328.344,209.171A23.812,23.812,0,0,0,298.8,245.026a1.318,1.318,0,0,0,2.08-1.619,21.176,21.176,0,0,1,26.274-31.884,1.318,1.318,0,1,0,1.188-2.352Z" transform="translate(-293.807 -206.605)" fill="#036"/>
      </g>
    </g>
    <g id="Group_5" data-name="Group 5" transform="translate(22.848 27.771)">
      <g id="Group_4" data-name="Group 4" transform="translate(0)">
        <path id="Path_10" data-name="Path 10" d="M405.287,314.184a1.318,1.318,0,0,0-2.353,1.188,21.176,21.176,0,0,1-31.886,26.269,1.318,1.318,0,1,0-1.618,2.08,23.812,23.812,0,0,0,35.857-29.537Z" transform="translate(-368.92 -313.461)" fill="#036"/>
      </g>
    </g>
    <g id="Group_7" data-name="Group 7" transform="translate(51.516 21.043)">
      <g id="Group_6" data-name="Group 6" transform="translate(0 0)">
        <path id="Path_11" data-name="Path 11" d="M620.919,257.755c-.326-.369-.669-.734-1.019-1.084s-.715-.693-1.084-1.019a1.318,1.318,0,0,0-1.745,1.975c.329.291.654.6.966.908s.617.637.908.966a1.318,1.318,0,0,0,1.975-1.745Z" transform="translate(-616.625 -255.321)" fill="#036"/>
      </g>
    </g>
    <g id="Group_9" data-name="Group 9" transform="translate(6.319 5.208)">
      <g id="Group_8" data-name="Group 8" transform="translate(0 0)">
        <path id="Path_12" data-name="Path 12" d="M288.84,152.536a4.472,4.472,0,0,0,0-4.673l-1.734-2.843a1.855,1.855,0,0,1-.249-1.253l.517-3.283a4.47,4.47,0,0,0-1.794-4.328l-2.687-1.954a1.855,1.855,0,0,1-.711-1.062l-.782-3.233a4.47,4.47,0,0,0-3.307-3.307l-3.233-.783a1.855,1.855,0,0,1-1.063-.711l-1.954-2.687a4.469,4.469,0,0,0-4.327-1.794l-3.284.517a1.855,1.855,0,0,1-1.252-.248l-2.843-1.734a4.471,4.471,0,0,0-4.673,0l-2.843,1.734a1.855,1.855,0,0,1-1.253.248l-3.283-.517a4.47,4.47,0,0,0-4.327,1.794L241.8,125.1a1.855,1.855,0,0,1-1.063.711l-3.233.782A4.471,4.471,0,0,0,234.2,129.9l-.783,3.234a1.853,1.853,0,0,1-.711,1.063l-2.687,1.954a4.47,4.47,0,0,0-1.794,4.327l.517,3.284a1.855,1.855,0,0,1-.248,1.252l-1.734,2.843a4.472,4.472,0,0,0,0,4.673l1.734,2.843a1.855,1.855,0,0,1,.248,1.253l-.517,3.283a4.469,4.469,0,0,0,1.794,4.327l2.686,1.954a1.854,1.854,0,0,1,.711,1.062l.783,3.233a4.47,4.47,0,0,0,3.307,3.307l1.35.327-9.138,20.384a1.318,1.318,0,0,0,1.359,1.847l7.353-.879,4.236,6.074a1.318,1.318,0,0,0,1.08.564c.041,0,.082,0,.124-.006a1.318,1.318,0,0,0,1.079-.773l9.332-20.819,1.183.721a4.471,4.471,0,0,0,4.673,0l1.225-.747,9.344,20.845a1.317,1.317,0,0,0,1.079.773c.041,0,.083.006.124.006a1.317,1.317,0,0,0,1.08-.564l4.236-6.074,7.353.879a1.318,1.318,0,0,0,1.359-1.847l-9.143-20.4,1.3-.314a4.471,4.471,0,0,0,3.307-3.306l.783-3.234a1.854,1.854,0,0,1,.711-1.063l2.687-1.955a4.469,4.469,0,0,0,1.794-4.327l-.517-3.284a1.854,1.854,0,0,1,.248-1.252Zm-45.345,45.6-3.357-4.814a1.316,1.316,0,0,0-1.237-.554l-5.827.7,8.325-18.572a1.843,1.843,0,0,1,.4.4l1.954,2.687a4.53,4.53,0,0,0,.622.693L240,188.448a1.318,1.318,0,1,0,2.4,1.078l4.367-9.741a4.512,4.512,0,0,0,1.316-.012l3.284-.517a1.848,1.848,0,0,1,.589,0Zm39.085-4.672-5.827-.7a1.317,1.317,0,0,0-1.237.554l-3.357,4.814-8.464-18.882a1.854,1.854,0,0,1,.538,0l3.283.517a4.51,4.51,0,0,0,1.368,0l4.37,9.748a1.318,1.318,0,0,0,2.4-1.078l-4.4-9.813a4.533,4.533,0,0,0,.583-.656l1.954-2.686a1.847,1.847,0,0,1,.444-.432Zm4.01-42.3-1.734,2.843a4.5,4.5,0,0,0-.6,3.034l.517,3.284a1.845,1.845,0,0,1-.74,1.786l-2.687,1.955a4.493,4.493,0,0,0-1.722,2.574l-.783,3.234a1.846,1.846,0,0,1-1.365,1.365l-3.234.782a4.493,4.493,0,0,0-2.574,1.722l-1.954,2.687a1.844,1.844,0,0,1-1.787.74l-3.283-.517a4.5,4.5,0,0,0-3.035.6l-2.843,1.733a1.846,1.846,0,0,1-1.929,0l-2.843-1.734a4.492,4.492,0,0,0-3.034-.6l-3.284.517a1.845,1.845,0,0,1-1.786-.74l-1.955-2.687a4.493,4.493,0,0,0-2.574-1.722l-3.233-.782a1.847,1.847,0,0,1-1.365-1.365l-.782-3.233a4.493,4.493,0,0,0-1.722-2.574l-2.686-1.954a1.845,1.845,0,0,1-.74-1.787l.517-3.283a4.5,4.5,0,0,0-.6-3.034l-1.734-2.843a1.846,1.846,0,0,1,0-1.929l1.734-2.843a4.493,4.493,0,0,0,.6-3.034l-.517-3.284a1.845,1.845,0,0,1,.74-1.786l2.687-1.955a4.494,4.494,0,0,0,1.722-2.574l.783-3.234a1.846,1.846,0,0,1,1.365-1.365l3.234-.782a4.492,4.492,0,0,0,2.574-1.722l1.954-2.687a1.844,1.844,0,0,1,1.786-.74l3.283.517a4.492,4.492,0,0,0,3.034-.6l2.843-1.734a1.846,1.846,0,0,1,1.929,0l2.843,1.734a4.492,4.492,0,0,0,3.034.6l3.284-.517a1.847,1.847,0,0,1,1.786.74l1.955,2.687a4.493,4.493,0,0,0,2.574,1.722l3.234.783a1.846,1.846,0,0,1,1.365,1.365l.782,3.233a4.493,4.493,0,0,0,1.722,2.574l2.687,1.954a1.845,1.845,0,0,1,.74,1.786l-.517,3.283a4.5,4.5,0,0,0,.6,3.034l1.734,2.843A1.846,1.846,0,0,1,286.59,151.164Z" transform="translate(-226.101 -118.5)" fill="#036"/>
      </g>
    </g>
    <g id="Group_11" data-name="Group 11" transform="translate(22.479 23.948)">
      <g id="Group_10" data-name="Group 10" transform="translate(0 0)">
        <path id="Path_13" data-name="Path 13" d="M396.691,291.632A2.357,2.357,0,0,0,394.707,290l-7.929-.94-3.344-7.25a2.381,2.381,0,0,0-4.324,0l-3.344,7.25-7.929.94a2.381,2.381,0,0,0-1.336,4.112l5.862,5.421-1.556,7.831a2.376,2.376,0,0,0,3.5,2.542l6.967-3.9,6.967,3.9a2.381,2.381,0,0,0,3.5-2.542l-1.556-7.831,5.862-5.421A2.357,2.357,0,0,0,396.691,291.632ZM387.85,298.1a1.318,1.318,0,0,0-.4,1.224l1.592,8.014-7.13-3.991a1.319,1.319,0,0,0-1.287,0l-7.13,3.991,1.592-8.014a1.317,1.317,0,0,0-.4-1.224l-6-5.548,8.114-.962a1.318,1.318,0,0,0,1.042-.757l3.422-7.419,3.422,7.419a1.319,1.319,0,0,0,1.041.757l8.114.962Z" transform="translate(-365.732 -280.429)" fill="#036"/>
      </g>
    </g>
  </g>
</svg>
