<svg xmlns="http://www.w3.org/2000/svg" width="89.091" height="89.091" viewBox="0 0 89.091 89.091">
  <g id="ic_team" transform="translate(-106.081 -122.855)">
    <path id="Path_27" data-name="Path 27" d="M257.808,373.969c0,8.724-4.282,15.8-9.564,15.8H229.068c-5.282,0-9.564-7.072-9.564-15.8V342.3c0-8.724,4.282-15.8,9.564-15.8h19.176c5.282,0,9.564,7.072,9.564,15.8Z" transform="translate(-99.408 -178.481)" fill="#4dd4e2"/>
    <path id="Path_28" data-name="Path 28" d="M182.31,183.493a11.5,11.5,0,1,0-14.834-.286h-14c-.095-.223-.172-.447-.276-.669L155.342,179l-1.536-1.536h2.568a4.316,4.316,0,0,0,4.311-4.311v-2.874a4.316,4.316,0,0,0-4.311-4.311H153.5a1.438,1.438,0,0,1-1.437-1.437v-1.437h14.369V155.9a15.818,15.818,0,0,0-10.095-14.721,10.059,10.059,0,1,0-11.424,0,15.876,15.876,0,0,0-8.658,8.175,15.87,15.87,0,0,0-8.657-8.175,10.059,10.059,0,1,0-11.424,0A15.819,15.819,0,0,0,106.081,155.9v7.185h14.37v1.437a1.438,1.438,0,0,1-1.437,1.437H116.14a4.316,4.316,0,0,0-4.311,4.311v2.874a4.316,4.316,0,0,0,4.311,4.311h2.568L117.171,179l2.144,3.542q-.332.713-.6,1.43l-4.015.987v10.875l4.015.987q.265.716.6,1.43l-2.144,3.542,7.691,7.69,3.542-2.144c.474.221.953.421,1.43.6l.986,4.013h10.875l.987-4.015q.715-.265,1.43-.6l3.542,2.144,7.691-7.69-2.144-3.542c.221-.474.421-.953.6-1.43l4.013-.986v-2.564h2.155a2.158,2.158,0,0,1,2.155,2.155v16.525h33.05V199.013A15.824,15.824,0,0,0,182.31,183.493Zm-15.877-8.908a8.622,8.622,0,1,1,8.622,8.622A8.63,8.63,0,0,1,166.433,174.585Zm-22.991-41.672a7.185,7.185,0,1,1,7.185,7.185A7.193,7.193,0,0,1,143.442,132.914Zm7.185,10.059A12.946,12.946,0,0,1,163.559,155.9v4.311h-4.311v-11.5h-2.874v11.5h-11.5v-11.5H142v11.5h-4.311V155.9A12.946,12.946,0,0,1,150.626,142.972ZM114.7,132.914a7.185,7.185,0,1,1,7.185,7.185A7.193,7.193,0,0,1,114.7,132.914ZM108.955,155.9a12.933,12.933,0,0,1,25.865,0v4.311h-4.311v-11.5h-2.874v11.5h-11.5v-11.5h-2.874v11.5h-4.311Zm7.185,18.68a1.438,1.438,0,0,1-1.437-1.437v-2.874a1.438,1.438,0,0,1,1.437-1.437h2.874a4.316,4.316,0,0,0,4.311-4.311v-1.437h25.865v1.437a4.316,4.316,0,0,0,4.311,4.311h2.874a1.438,1.438,0,0,1,1.437,1.437v2.874a1.438,1.438,0,0,1-1.437,1.437h-5.442l-3.279-3.279-3.542,2.144q-.713-.332-1.43-.6l-.987-4.015H130.82l-.987,4.015q-.716.265-1.43.6l-3.542-2.144-3.279,3.279Zm38.8,18.991-3.37.829-.244.767a15.721,15.721,0,0,1-1.039,2.481l-.372.716,1.8,2.98-4.5,4.5-2.98-1.8-.716.372a15.652,15.652,0,0,1-2.479,1.038l-.77.243-.828,3.371h-6.369l-.829-3.37-.767-.244a15.71,15.71,0,0,1-2.482-1.039l-.716-.372-2.98,1.8-4.5-4.5,1.8-2.98-.372-.716a15.663,15.663,0,0,1-1.037-2.479l-.243-.77-3.371-.828v-6.369l3.372-.829.243-.77a15.773,15.773,0,0,1,1.037-2.479l.372-.716-1.8-2.98,4.5-4.5,2.98,1.8.716-.372a15.641,15.641,0,0,1,2.479-1.038l.77-.243.828-3.371h6.369l.829,3.372.77.243a15.781,15.781,0,0,1,2.479,1.038l.716.372,2.98-1.8,4.5,4.5-1.8,2.98.372.716.037.077h-3.347a12.9,12.9,0,1,0,1.89,10.057h6.071Zm-15.248-.595a4.306,4.306,0,1,1-3.433-6.9,4.052,4.052,0,0,1,.471.062,4.961,4.961,0,0,0-.471,2.094,5.018,5.018,0,0,0,3.433,4.745Zm-.659-9.215a7.184,7.184,0,1,0,3.809,9.5h3.054a10.067,10.067,0,1,1-2.608-10.059h-2A4.975,4.975,0,0,0,139.03,183.766ZM192.3,209.072h-4.311V193.265h-2.874v15.807H165V195.421a5.035,5.035,0,0,0-5.029-5.029h-18.68a2.155,2.155,0,0,1,0-4.311h38.079A12.946,12.946,0,0,1,192.3,199.013Z" transform="translate(0 0)"/>
  </g>
</svg>
