<svg xmlns="http://www.w3.org/2000/svg" width="66.07" height="45.505" viewBox="0 0 66.07 45.505">
  <g id="logo_mono_primary" transform="translate(3.146 1.125)">
    <path id="Path_35" data-name="Path 35" d="M453.629,387.952v.016L423.5,391.937l9.272,4.541-3.5,8.409,25.749-14.115" transform="translate(-423.497 -362.578)" fill="#4c4570" stroke="#4c4570" stroke-miterlimit="10" stroke-width="1.843"/>
    <path id="Path_36" data-name="Path 36" d="M515.307,337.289l-14.8-.768-7.752-12.628-5.3,13.836-14.406,3.47,10.064,8.144.372.3.416.337.67.543-.055.705-.063.8-.024.345-1.01,12.921,12.426-8.073,13.689,5.656-3.838-14.311ZM495.225,352.97l-7.827,5.09.725-9.308-7.26-5.87,9.078-2.19,3.343-8.714,4.884,7.954,9.324.487-6.056,7.1,2.416,9.015Z" transform="translate(-453.421 -323.893)" fill="#4c4570" stroke="#4c4570" stroke-miterlimit="10" stroke-width="1"/>
    <path id="Path_37" data-name="Path 37" d="M495.1,388.472l4.562-.73.33.527.327,1.3-.576.123-3.042,1.379Z" transform="translate(-466.74 -362.452)" fill="#4c4570"/>
    <text id="SE" transform="translate(34.428 27)" fill="#4c4570" font-size="10" font-family="Arial-BoldMT, Arial" font-weight="700"><tspan x="0" y="0">SE</tspan></text>
  </g>
</svg>
